<?xml version="1.0" encoding="UTF-8" standalone="no"?>
<!-- Generator: Adobe Illustrator 12.0.0, SVG Export Plug-In . SVG Version: 6.00 Build 51448)  -->

<svg
   xmlns:dc="http://purl.org/dc/elements/1.1/"
   xmlns:cc="http://creativecommons.org/ns#"
   xmlns:rdf="http://www.w3.org/1999/02/22-rdf-syntax-ns#"
   xmlns:svg="http://www.w3.org/2000/svg"
   xmlns="http://www.w3.org/2000/svg"
   xmlns:sodipodi="http://sodipodi.sourceforge.net/DTD/sodipodi-0.dtd"
   xmlns:inkscape="http://www.inkscape.org/namespaces/inkscape"
   version="1.1"
   id="svg2"
   sodipodi:docname="icon.svg"
   inkscape:version="0.91 r13725"
   width="450"
   height="170"
   viewBox="-196 -104 449.99998 170.00002"
   overflow="visible"
   enable-background="new -196 -104 385.334 145.333"
   xml:space="preserve"
   style="overflow:visible"><metadata
     id="metadata4180"><rdf:RDF><cc:Work
         rdf:about=""><dc:format>image/svg+xml</dc:format><dc:type
           rdf:resource="http://purl.org/dc/dcmitype/StillImage" /><dc:title></dc:title></cc:Work></rdf:RDF></metadata><defs
     id="defs4178" /><sodipodi:namedview
     gridtolerance="10"
     id="namedview7198"
     inkscape:cy="98.277062"
     inkscape:window-maximized="1"
     inkscape:current-layer="layer1"
     borderopacity="1"
     showgrid="false"
     inkscape:cx="178.17123"
     inkscape:zoom="2.2677626"
     pagecolor="#ffffff"
     bordercolor="#666666"
     guidetolerance="10"
     inkscape:window-x="1912"
     inkscape:window-width="1440"
     inkscape:window-height="837"
     inkscape:window-y="-8"
     inkscape:pageopacity="0"
     objecttolerance="10"
     inkscape:pageshadow="2" /><g
     id="layer1"
     transform="matrix(0.6884202,0,0,0.6884202,-2.8247325,-567.74017)"><g
       id="layer2" /><g
       id="g5410"
       transform="matrix(1.0166463,0,0,1.0166463,-74.94494,478.06144)"><rect
         id="rect2996"
         x="-194.94299"
         y="203.916"
         width="15.09"
         height="226.87199"
         style="fill:#3e3d3b;stroke:#3e3d3b;stroke-width:0.8775" /><rect
         id="rect2996-5"
         x="-180.05901"
         y="204.201"
         width="597.59497"
         height="15.155"
         style="fill:#3e3d3b;stroke:#3e3d3b;stroke-width:1.42719996" /><rect
         id="rect2996-5-0"
         x="-180.32001"
         y="415.24799"
         width="597.59399"
         height="15.155"
         style="fill:#3e3d3b;stroke:#3e3d3b;stroke-width:1.42719996" /><rect
         id="rect2996-7"
         x="416.862"
         y="203.87801"
         width="15.09"
         height="226.871"
         style="fill:#3e3d3b;stroke:#3e3d3b;stroke-width:0.8775" /><rect
         id="rect2996-6"
         x="-155.47099"
         y="310.103"
         width="21.209999"
         height="83.014999"
         style="fill:#3e3d3b;stroke:#3e3d3b;stroke-width:0.6293" /><rect
         id="rect2996-6-6"
         x="-147.161"
         y="309.922"
         width="40.035999"
         height="17.113001"
         style="fill:#3e3d3b;stroke:#3e3d3b;stroke-width:0.39250001" /><rect
         id="rect2996-6-6-9-2"
         x="-147.161"
         y="345.11301"
         width="40.035999"
         height="17.113001"
         style="fill:#3e3d3b;stroke:#3e3d3b;stroke-width:0.39250001" /><rect
         id="rect2996-6-2"
         x="-93.711998"
         y="310.099"
         width="20.663"
         height="83.023003"
         style="fill:#3e3d3b;stroke:#3e3d3b;stroke-width:0.62120003" /><rect
         id="rect2996-6-2-7"
         x="-44.933998"
         y="311.76199"
         width="20.940001"
         height="81.961998"
         style="fill:#3e3d3b;stroke:#3e3d3b;stroke-width:0.62129998" /><rect
         id="rect2996-6-2-7-0"
         x="-63.769001"
         y="310.07501"
         width="58.611"
         height="17.41"
         style="fill:#3e3d3b;stroke:#3e3d3b;stroke-width:0.479" /><rect
         id="rect2996-6-2-7-6"
         x="2.1140001"
         y="309.79001"
         width="21.440001"
         height="83.917999"
         style="fill:#3e3d3b;stroke:#3e3d3b;stroke-width:0.63609999" /><rect
         id="rect2996-6-2-7-6-7"
         x="58.749001"
         y="309.79001"
         width="21.440001"
         height="83.917999"
         style="fill:#3e3d3b;stroke:#3e3d3b;stroke-width:0.63609999" /><rect
         id="rect2996-6-2-7-6-7-5"
         x="2.5179999"
         y="343.439"
         width="77.266998"
         height="15.436"
         style="fill:#3e3d3b;stroke:#3e3d3b;stroke-width:0.51789999" /><rect
         id="rect2996-6-4"
         x="341.65201"
         y="310.142"
         width="20.665001"
         height="83.025002"
         style="fill:#3e3d3b;stroke:#3e3d3b;stroke-width:0.62120003" /><rect
         id="rect2996-6-6-7"
         x="347.496"
         y="309.95001"
         width="39.014999"
         height="16.975"
         style="fill:#3e3d3b;stroke:#3e3d3b;stroke-width:0.38600001" /><rect
         id="rect2996-6-6-9-2-1"
         x="346.05801"
         y="344.99301"
         width="39.021999"
         height="16.673"
         style="fill:#3e3d3b;stroke:#3e3d3b;stroke-width:0.38260001" /><rect
         id="rect2996-6-6-9-2-1-7"
         x="347.457"
         y="376.48099"
         width="39.018002"
         height="16.68"
         style="fill:#3e3d3b;stroke:#3e3d3b;stroke-width:0.38260001" /><rect
         id="rect2996-6-6-7-0"
         x="187.99001"
         y="309.535"
         width="19.542"
         height="49.731998"
         style="fill:#3e3d3b;stroke:#3e3d3b;stroke-width:0.4675" /><rect
         id="rect2996-6-6-7-0-5"
         x="238.955"
         y="309.883"
         width="19.573999"
         height="49.737999"
         style="fill:#3e3d3b;stroke:#3e3d3b;stroke-width:0.46790001" /><g
         id="flowRoot4135"
         transform="matrix(1.6221808,0,0,1.6036887,1119.5105,-301.39164)"><path
           id="path5541"
           d="m -659.517,347.64 1.89,-8.956 c 2.07,0.451 4.231,0.855 6.301,0.855 3.51,-0.765 3.645,-3.511 4.275,-5.4 -1.26,0.405 -2.655,0.54 -4.05,0.54 -2.836,0 -5.67,-0.54 -7.471,-0.54 -11.115,0 -15.346,5.715 -15.346,11.7 0,3.241 1.71,4.367 4.815,4.367 -0.045,-0.406 -0.629,-0.766 -0.629,-3.061 0,-7.201 2.385,-9.181 5.85,-9.316 l -6.481,30.062 6.481,0 3.644,-16.92 6.571,0 0.72,-3.331 -6.57,0"
           inkscape:connector-curvature="0"
           style="fill:#3e3d3b" /><path
           id="path5543"
           d="m -639.491,345.389 -3.061,14.445 c -0.675,2.25 -1.845,3.961 -3.6,3.961 -0.99,0 -1.35,-0.811 -1.35,-1.845 0,-0.405 0.045,-0.81 0.136,-1.261 l 3.24,-15.3 -6.48,0 -3.06,14.445 c -0.225,1.081 -0.361,2.071 -0.361,2.926 0,3.779 2.115,5.4 4.816,5.4 1.89,0 4.409,-0.585 6.66,-4.275 0.27,2.79 1.891,4.275 4.455,4.275 2.431,0 6.481,-0.99 9.046,-8.326 l -1.89,0 c -0.675,2.25 -1.89,3.961 -3.644,3.961 -1.261,0 -1.846,-0.405 -1.846,-1.665 0,-0.405 0.046,-0.855 0.18,-1.44 l 3.24,-15.3 -6.481,0"
           inkscape:connector-curvature="0"
           style="fill:#3e3d3b" /><path
           id="path5545"
           d="m -626.087,337.289 -4.816,22.546 c -0.225,1.081 -0.359,2.071 -0.359,2.926 0,3.78 2.115,5.4 4.815,5.4 2.43,0 6.885,-0.99 9.453,-8.326 l -1.892,0 c -0.676,2.25 -2.295,3.961 -4.051,3.961 -1.259,0 -1.844,-0.405 -1.844,-1.665 0,-0.405 0.046,-0.854 0.182,-1.44 l 5.175,-24.301 -6.663,0.899"
           inkscape:connector-curvature="0"
           style="fill:#3e3d3b" /><path
           id="path5547"
           d="m -614.45,339.179 -1.351,6.21 -1.485,0 -0.359,1.801 1.485,0 -2.699,12.645 c -0.227,1.081 -0.36,2.071 -0.36,2.926 0,3.779 2.116,5.4 4.814,5.4 2.431,0 6.885,-0.99 9.452,-8.326 l -1.89,0 c -0.677,2.25 -2.295,3.961 -4.051,3.961 -1.259,0 -1.844,-0.405 -1.844,-1.665 0,-0.405 0.044,-0.855 0.18,-1.44 l 2.88,-13.5 2.7,0 0.359,-1.801 -2.698,0 1.529,-7.11 -6.662,0.899"
           inkscape:connector-curvature="0"
           style="fill:#3e3d3b" /><path
           id="path5549"
           d="m -595.117,344.984 c -9.272,0 -12.332,10.801 -12.332,15.976 0,5.131 3.016,7.111 7.201,7.111 5.534,0 10.035,-5.22 10.755,-13.546 3.285,-0.54 6.254,-1.889 7.963,-3.735 l -0.403,-1.215 c -1.936,1.35 -4.86,2.701 -6.931,2.701 -0.135,0 -0.315,0 -0.492,-0.09 -10e-4,-4.726 -1.893,-7.202 -5.761,-7.202 m -3.333,19.036 c -1.708,0 -2.295,-0.675 -2.295,-3.645 0,-4.411 2.792,-12.645 5.987,-12.645 1.169,0 1.619,0.72 1.708,2.61 -0.808,0.36 -1.395,1.169 -1.395,2.429 0,0.9 0.269,1.665 1.215,1.891 -0.717,5.31 -3.014,9.36 -5.22,9.36"
           inkscape:connector-curvature="0"
           style="fill:#3e3d3b" /><path
           id="path5551"
           d="m -574.084,351.6 c 0,2.88 -2.026,8.415 -2.026,11.476 0,2.564 1.082,5.085 4.548,5.085 2.383,0 4.544,-1.395 4.948,-4.635 -0.269,0.18 -0.716,0.27 -1.483,0.27 -1.349,0 -1.8,-0.765 -1.8,-1.89 0,-2.52 2.159,-7.966 2.159,-11.611 0,-3.6 -2.116,-5.086 -4.995,-5.086 -1.395,0 -3.377,0.361 -5.265,2.521 l 0.495,-2.341 -6.48,0 -4.77,22.501 6.48,0 3.062,-14.445 c 0.673,-2.25 1.888,-4.141 3.509,-4.141 1.079,0.001 1.618,0.81 1.618,2.296"
           inkscape:connector-curvature="0"
           style="fill:#3e3d3b" /></g><g
         id="g5448"
         transform="matrix(0.97726281,0,0,0.97726281,-10.798352,-199.25394)"
         style="stroke-width:0.16961689;stroke-miterlimit:4.80000019;stroke-dasharray:none"><path
           id="path5280-4-1"
           stroke-miterlimit="4.8"
           d="m 116.11,563.946 c 0.002,-18.327 14.972,-33.178 33.438,-33.178 18.466,0 33.436,14.858 33.436,33.185 -0.003,18.32 -14.97,33.178 -33.439,33.178 -18.393,0 -33.334,-14.749 -33.433,-33.006"
           style="fill-opacity:0;stroke:#3e3d3b;stroke-width:0.16961689;stroke-miterlimit:4.80000019;stroke-dasharray:none"
           inkscape:connector-curvature="0" /><path
           id="path5280-4-1-6"
           stroke-miterlimit="4.8"
           d="m 181.857,563.774 c 0,18.323 -14.97,33.181 -33.432,33.178 -18.469,0 -33.44,-14.858 -33.44,-33.178 0.002,-18.33 14.972,-33.185 33.44,-33.185 18.396,0 33.333,14.749 33.432,33.002"
           style="fill-opacity:0;stroke:#3e3d3b;stroke-width:0.16961689;stroke-miterlimit:4.80000019;stroke-dasharray:none"
           inkscape:connector-curvature="0" /></g><path
         id="path5370"
         stroke-miterlimit="4.8"
         d="m 248.736,358.766 c 0,13.484 -11.399,24.414 -25.463,24.414 -14.06,0 -25.46,-10.93 -25.46,-24.414 0,-0.136 0,-0.269 0.003,-0.401"
         style="fill:#ff0000;fill-opacity:0;stroke:#3e3d3b;stroke-width:20.44818687;stroke-miterlimit:4.80000019;stroke-dasharray:none"
         inkscape:connector-curvature="0" /><path
         id="path5372-1"
         stroke-miterlimit="4.8"
         d="m 298.745,351.795 c 11.017,0.871 19.629,8.974 19.234,18.091 -0.395,9.117 -9.645,15.796 -20.665,14.922 -7.443,-0.592 -14.119,-4.562 -17.311,-10.298"
         style="fill:#ff0000;fill-opacity:0;stroke:#3e3d3b;stroke-width:17.80099678;stroke-miterlimit:4.80000019;stroke-dasharray:none"
         inkscape:connector-curvature="0" /><path
         id="path5372-1-6"
         stroke-miterlimit="4.8"
         d="m 299.399,351.672 c -11.02,-0.557 -19.979,-8.424 -20.014,-17.573 -0.036,-9.149 8.868,-16.116 19.885,-15.559 7.725,0.392 14.766,4.448 18.081,10.415"
         style="fill:#ff0000;fill-opacity:0;stroke:#3e3d3b;stroke-width:17.80099678;stroke-miterlimit:4.80000019;stroke-dasharray:none"
         inkscape:connector-curvature="0" /><path
         id="path5971"
         d="m 278.359,382.584 c -0.631,-0.686 -1.68,-2.224 -2.179,-3.199 l -0.35,-0.673 7.207,-3.998 c 3.959,-2.202 7.236,-3.963 7.278,-3.921 0.065,0.061 -8.9,9.832 -10.823,11.791 l -0.583,0.592 -0.55,-0.592 0,0 0,0 z"
         inkscape:connector-curvature="0"
         style="fill-opacity:0" /><path
         id="path5973"
         d="M -197.563,195.665"
         inkscape:connector-curvature="0"
         style="fill-opacity:0" /><rect
         id="rect5993"
         x="258.47699"
         y="308.64899"
         width="6.763"
         height="63.370998"
         style="fill:#ffffff" /><rect
         id="rect5993-1"
         x="182.06599"
         y="307.586"
         width="5.7600002"
         height="63.375"
         style="fill:#ffffff" /><rect
         id="rect5993-2"
         x="207.839"
         y="297.58099"
         width="30.627001"
         height="63.373001"
         style="fill:#ffffff" /><circle
         style="fill:none;fill-opacity:1;stroke:#3e3d3b;stroke-width:18.51156807;stroke-miterlimit:4.80000019;stroke-dasharray:none;stroke-opacity:1"
         id="path4193"
         cx="135.00887"
         cy="351.48746"
         r="35.44735" /></g></g></svg>