<?xml version="1.0" encoding="UTF-8" standalone="no"?>
<!-- Created with Inkscape (http://www.inkscape.org/) -->

<svg
   xmlns:dc="http://purl.org/dc/elements/1.1/"
   xmlns:cc="http://creativecommons.org/ns#"
   xmlns:rdf="http://www.w3.org/1999/02/22-rdf-syntax-ns#"
   xmlns:svg="http://www.w3.org/2000/svg"
   xmlns="http://www.w3.org/2000/svg"
   xmlns:sodipodi="http://sodipodi.sourceforge.net/DTD/sodipodi-0.dtd"
   xmlns:inkscape="http://www.inkscape.org/namespaces/inkscape"
   version="1.1"
   width="160"
   height="59"
   id="svg2"
   inkscape:version="0.48.4 r9939"
   sodipodi:docname="iconSmall.svg">
  <sodipodi:namedview
     pagecolor="#ffffff"
     bordercolor="#666666"
     borderopacity="1"
     objecttolerance="10"
     gridtolerance="10"
     guidetolerance="10"
     inkscape:pageopacity="0"
     inkscape:pageshadow="2"
     inkscape:window-width="1440"
     inkscape:window-height="850"
     id="namedview7002"
     showgrid="false"
     inkscape:zoom="4.7906484"
     inkscape:cx="80"
     inkscape:cy="29.5"
     inkscape:window-x="1920"
     inkscape:window-y="0"
     inkscape:window-maximized="1"
     inkscape:current-layer="g5410" />
  <defs
     id="defs4" />
  <metadata
     id="metadata7">
    <rdf:RDF>
      <cc:Work
         rdf:about="">
        <dc:format>image/svg+xml</dc:format>
        <dc:type
           rdf:resource="http://purl.org/dc/dcmitype/StillImage" />
        <dc:title />
      </cc:Work>
    </rdf:RDF>
  </metadata>
  <g
     transform="translate(0,-993.362)"
     id="layer1">
    <g
       id="layer2"
       style="display:inline">
      <rect
         width="154.27124"
         height="53.500301"
         x="2.9234405"
         y="996.68005"
         id="rect5095"
         style="fill:#ffffff;fill-opacity:1;fill-rule:nonzero;stroke:#000000;stroke-width:0;stroke-miterlimit:4;stroke-opacity:1;stroke-dasharray:none" />
    </g>
    <g
       transform="matrix(0.2840619,0,0,0.2840619,-33.679366,888.83655)"
       id="g5410">
      <rect
         width="13.412427"
         height="201.65297"
         x="122.14288"
         y="372.61758"
         id="rect2996"
         style="fill:#3e3d3b;fill-opacity:1;fill-rule:evenodd;stroke:#3e3d3b;stroke-width:0.87746954px;stroke-linecap:butt;stroke-linejoin:miter;stroke-opacity:1" />
      <rect
         width="13.470558"
         height="531.16785"
         x="372.87057"
         y="-666.53943"
         transform="matrix(0,1,-1,0,0,0)"
         id="rect2996-5"
         style="fill:#3e3d3b;fill-opacity:1;fill-rule:evenodd;stroke:#3e3d3b;stroke-width:1.4271996px;stroke-linecap:butt;stroke-linejoin:miter;stroke-opacity:1" />
      <rect
         width="13.470558"
         height="531.16785"
         x="560.45734"
         y="-666.30792"
         transform="matrix(0,1,-1,0,0,0)"
         id="rect2996-5-0"
         style="fill:#3e3d3b;fill-opacity:1;fill-rule:evenodd;stroke:#3e3d3b;stroke-width:1.4271996px;stroke-linecap:butt;stroke-linejoin:miter;stroke-opacity:1" />
      <rect
         width="13.412427"
         height="201.65297"
         x="665.94092"
         y="372.58279"
         id="rect2996-7"
         style="fill:#3e3d3b;fill-opacity:1;fill-rule:evenodd;stroke:#3e3d3b;stroke-width:0.87746954px;stroke-linecap:butt;stroke-linejoin:miter;stroke-opacity:1" />
      <rect
         width="18.852427"
         height="73.786247"
         x="157.22658"
         y="467.00092"
         id="rect2996-6"
         style="fill:#3e3d3b;fill-opacity:1;fill-rule:evenodd;stroke:#3e3d3b;stroke-width:0.62928504px;stroke-linecap:butt;stroke-linejoin:miter;stroke-opacity:1" />
      <rect
         width="15.208607"
         height="35.585449"
         x="466.84036"
         y="-200.19849"
         transform="matrix(0,1,-1,0,0,0)"
         id="rect2996-6-6"
         style="fill:#3e3d3b;fill-opacity:1;fill-rule:evenodd;stroke:#3e3d3b;stroke-width:0.39251569px;stroke-linecap:butt;stroke-linejoin:miter;stroke-opacity:1" />
      <rect
         width="15.208607"
         height="35.585449"
         x="498.12189"
         y="-200.19846"
         transform="matrix(0,1,-1,0,0,0)"
         id="rect2996-6-6-9-2"
         style="fill:#3e3d3b;fill-opacity:1;fill-rule:evenodd;stroke:#3e3d3b;stroke-width:0.39251569px;stroke-linecap:butt;stroke-linejoin:miter;stroke-opacity:1" />
      <rect
         width="18.36665"
         height="73.794373"
         x="212.12109"
         y="466.99686"
         id="rect2996-6-2"
         style="fill:#3e3d3b;fill-opacity:1;fill-rule:evenodd;stroke:#3e3d3b;stroke-width:0.62115884px;stroke-linecap:butt;stroke-linejoin:miter;stroke-opacity:1" />
      <rect
         width="18.613016"
         height="72.849213"
         x="255.47723"
         y="468.47516"
         id="rect2996-6-2-7"
         style="fill:#3e3d3b;fill-opacity:1;fill-rule:evenodd;stroke:#3e3d3b;stroke-width:0.6212936px;stroke-linecap:butt;stroke-linejoin:miter;stroke-opacity:1" />
      <rect
         width="15.472491"
         height="52.095947"
         x="466.97714"
         y="-290.83173"
         transform="matrix(0,1,-1,0,0,0)"
         id="rect2996-6-2-7-0"
         style="fill:#3e3d3b;fill-opacity:1;fill-rule:evenodd;stroke:#3e3d3b;stroke-width:0.47902501px;stroke-linecap:butt;stroke-linejoin:miter;stroke-opacity:1" />
      <rect
         width="19.057262"
         height="74.587952"
         x="297.29562"
         y="466.72302"
         id="rect2996-6-2-7-6"
         style="fill:#3e3d3b;fill-opacity:1;fill-rule:evenodd;stroke:#3e3d3b;stroke-width:0.63612235px;stroke-linecap:butt;stroke-linejoin:miter;stroke-opacity:1" />
      <rect
         width="19.057262"
         height="74.587952"
         x="347.63477"
         y="466.72302"
         id="rect2996-6-2-7-6-7"
         style="fill:#3e3d3b;fill-opacity:1;fill-rule:evenodd;stroke:#3e3d3b;stroke-width:0.63612235px;stroke-linecap:butt;stroke-linejoin:miter;stroke-opacity:1" />
      <rect
         width="13.719113"
         height="68.678413"
         x="496.63358"
         y="-366.33301"
         transform="matrix(0,1,-1,0,0,0)"
         id="rect2996-6-2-7-6-7-5"
         style="fill:#3e3d3b;fill-opacity:1;fill-rule:evenodd;stroke:#3e3d3b;stroke-width:0.51790392px;stroke-linecap:butt;stroke-linejoin:miter;stroke-opacity:1" />
      <rect
         width="18.36665"
         height="73.794373"
         x="599.09363"
         y="467.03683"
         id="rect2996-6-4"
         style="fill:#3e3d3b;fill-opacity:1;fill-rule:evenodd;stroke:#3e3d3b;stroke-width:0.62115884px;stroke-linecap:butt;stroke-linejoin:miter;stroke-opacity:1" />
      <rect
         width="15.089149"
         height="34.679878"
         x="466.86475"
         y="-638.96722"
         transform="matrix(0,1,-1,0,0,0)"
         id="rect2996-6-6-7"
         style="fill:#3e3d3b;fill-opacity:1;fill-rule:evenodd;stroke:#3e3d3b;stroke-width:0.38596439px;stroke-linecap:butt;stroke-linejoin:miter;stroke-opacity:1" />
      <rect
         width="14.823035"
         height="34.683281"
         x="498.00919"
         y="-637.68915"
         transform="matrix(0,1,-1,0,0,0)"
         id="rect2996-6-6-9-2-1"
         style="fill:#3e3d3b;fill-opacity:1;fill-rule:evenodd;stroke:#3e3d3b;stroke-width:0.38256457px;stroke-linecap:butt;stroke-linejoin:miter;stroke-opacity:1" />
      <rect
         width="14.823035"
         height="34.683281"
         x="526.00275"
         y="-638.93445"
         transform="matrix(0,1,-1,0,0,0)"
         id="rect2996-6-6-9-2-1-7"
         style="fill:#3e3d3b;fill-opacity:1;fill-rule:evenodd;stroke:#3e3d3b;stroke-width:0.38256457px;stroke-linecap:butt;stroke-linejoin:miter;stroke-opacity:1" />
      <rect
         width="17.36796"
         height="44.205456"
         x="462.51001"
         y="466.49588"
         id="rect2996-6-6-7-0"
         style="fill:#3e3d3b;fill-opacity:1;fill-rule:evenodd;stroke:#3e3d3b;stroke-width:0.46750736px;stroke-linecap:butt;stroke-linejoin:miter;stroke-opacity:1" />
      <rect
         width="17.399267"
         height="44.205215"
         x="507.81195"
         y="466.80557"
         id="rect2996-6-6-7-0-5"
         style="fill:#3e3d3b;fill-opacity:1;fill-rule:evenodd;stroke:#3e3d3b;stroke-width:0.46792728px;stroke-linecap:butt;stroke-linejoin:miter;stroke-opacity:1" />
      <g
         transform="matrix(1.6221808,0,0,1.6036887,1119.5105,-301.39164)"
         id="flowRoot4135"
         style="font-size:40px;font-style:normal;font-variant:normal;font-weight:normal;font-stretch:normal;line-height:125%;letter-spacing:0px;word-spacing:0px;fill:#3e3d3b;fill-opacity:1;stroke:none;font-family:'Lobster 1.4';-inkscape-font-specification:'Lobster 1.4,'">
        <path
           d="m -480.80875,449.21738 1.68,-7.96 c 1.84,0.4 3.76,0.76 5.6,0.76 3.12,-0.68 3.24,-3.12 3.8,-4.8 -1.12,0.36 -2.36,0.48 -3.6,0.48 -2.52,0 -5.04,-0.48 -6.64,-0.48 -9.87999,0 -13.64,5.08001 -13.64,10.4 0,2.88 1.52,3.88 4.28,3.88 -0.04,-0.36 -0.56,-0.68 -0.56,-2.72 0,-6.39999 2.12,-8.16 5.2,-8.28 l -5.76,26.72 5.76,0 3.24,-15.04 5.84,0 0.64,-2.96 -5.84,0"
           id="path5541" />
        <path
           d="m -463.00937,447.21738 -2.72,12.84 c -0.6,2 -1.64001,3.52 -3.2,3.52 -0.88,0 -1.2,-0.72 -1.2,-1.64 0,-0.36 0.04,-0.72 0.12,-1.12 l 2.88,-13.6 -5.76,0 -2.72,12.84 c -0.2,0.96 -0.32,1.84 -0.32,2.6 0,3.36 1.88,4.8 4.27999,4.8 1.68,0 3.92001,-0.52 5.92001,-3.8 0.23999,2.48 1.68,3.8 3.95999,3.8 2.16,0 5.76001,-0.88001 8.04001,-7.4 l -1.68,0 c -0.6,2 -1.68001,3.52 -3.24001,3.52 -1.11999,0 -1.63999,-0.36 -1.63999,-1.48 0,-0.36 0.04,-0.76 0.16,-1.28 l 2.88,-13.6 -5.76,0"
           id="path5543" />
        <path
           d="m -451.095,440.01738 -4.28,20.04 c -0.2,0.96 -0.32,1.84 -0.32,2.6 0,3.36 1.88,4.8 4.28,4.8 2.16,0 6.12,-0.88001 8.4,-7.4 l -1.68,0 c -0.6,2 -2.04,3.52 -3.6,3.52 -1.12,0 -1.64,-0.36 -1.64,-1.48 0,-0.36 0.04,-0.76 0.16,-1.28 l 4.6,-21.6 -5.92,0.8"
           id="path5545" />
        <path
           d="m -440.75187,441.69738 -1.2,5.52 -1.32001,0 -0.32,1.6 1.32,0 -2.39999,11.24 c -0.2,0.96 -0.32,1.84 -0.32,2.6 0,3.36 1.88,4.8 4.27999,4.8 2.16,0 6.12001,-0.88001 8.40001,-7.4 l -1.68,0 c -0.6,2 -2.04001,3.52 -3.60001,3.52 -1.11999,0 -1.63999,-0.36 -1.63999,-1.48 0,-0.36 0.04,-0.76 0.16,-1.28 l 2.56,-12 2.4,0 0.32,-1.6 -2.4,0 1.35999,-6.32 -5.91999,0.8"
           id="path5547" />
        <path
           d="m -423.56875,446.85738 c -8.23999,0 -10.96,9.60001 -10.96,14.2 0,4.56 2.68,6.32 6.4,6.32 4.92,0 8.92,-4.64001 9.56,-12.04 2.92,-0.48 5.56,-1.68 7.08,-3.32 l -0.36,-1.08 c -1.72,1.2 -4.32,2.4 -6.16,2.4 -0.12,0 -0.28,0 -0.44,-0.08 0,-4.2 -1.68,-6.4 -5.12,-6.4 m -2.96,16.92 c -1.52,0 -2.04,-0.6 -2.04,-3.24 0,-3.92 2.48,-11.24 5.32,-11.24 1.04,0 1.44,0.64 1.52,2.32 -0.72,0.32 -1.24,1.04 -1.24,2.16 0,0.8 0.24,1.48 1.08,1.68 -0.64,4.72 -2.68,8.32 -4.64,8.32"
           id="path5549" />
        <path
           d="m -404.87063,452.73738 c 0,2.56 -1.79999,7.48 -1.79999,10.2 0,2.28 0.96,4.52 4.04,4.52 2.11999,0 4.04,-1.24 4.4,-4.12 -0.24,0.16 -0.64001,0.24 -1.32001,0.24 -1.19999,0 -1.59999,-0.68 -1.59999,-1.68 0,-2.24 1.92,-7.08 1.92,-10.32 0,-3.2 -1.88001,-4.52 -4.44,-4.52 -1.24,0 -3.00001,0.32 -4.68,2.24 l 0.44,-2.08 -5.76,0 -4.24,20 5.76,0 2.71999,-12.84 c 0.6,-2 1.68001,-3.68 3.12,-3.68 0.96,0 1.44,0.72 1.44,2.04"
           id="path5551" />
      </g>
      <g
         transform="matrix(0.97726281,0,0,0.97726281,-10.798352,-199.25394)"
         id="g5448">
        <path
           d="m -71.720818,755.37732 a 104.04572,100.0051 0 1 1 -0.0015,-0.54053"
           transform="matrix(-0.28563533,0,0,-0.29491461,386.23633,942.51704)"
           id="path5280-4-1"
           style="fill:#000000;fill-opacity:0;stroke:#3e3d3b;stroke-width:61.6921196;stroke-miterlimit:4.80000019;stroke-opacity:1;stroke-dasharray:none" />
        <path
           d="m -71.720818,755.37732 a 104.04572,100.0051 0 1 1 -0.0015,-0.54053"
           transform="matrix(0.28563533,0,0,0.29491461,485.64697,496.81749)"
           id="path5280-4-1-6"
           style="fill:#000000;fill-opacity:0;stroke:#3e3d3b;stroke-width:61.6921196;stroke-miterlimit:4.80000019;stroke-opacity:1;stroke-dasharray:none" />
      </g>
      <path
         d="m 20.357143,297.71933 a 21.071428,22.142857 0 1 1 -42.139955,-0.3675"
         transform="matrix(1.0740638,0,0,0.98000169,494.63918,218.48938)"
         id="path5370"
         style="fill:#ff0000;fill-opacity:0;stroke:#3e3d3b;stroke-width:17.34399986;stroke-miterlimit:4.80000019;stroke-opacity:1;stroke-dasharray:none" />
      <path
         d="M 72.055939,156.99766 A 20.357143,19.424868 0 1 1 40.768551,142.45643"
         transform="matrix(0.11150812,-0.71129844,0.90586522,0.14200977,410.70167,533.01499)"
         id="path5372-1"
         style="fill:#ff0000;fill-opacity:0;stroke:#3e3d3b;stroke-width:20.75515175;stroke-miterlimit:4.80000019;stroke-opacity:1;stroke-dasharray:none" />
      <path
         d="M 71.942391,156.07142 A 20.357143,19.424868 0 1 1 40.612484,142.55324"
         transform="matrix(-0.11918501,0.71005244,-0.90427839,-0.15178658,711.24231,476.55736)"
         id="path5372-1-6"
         style="fill:#ff0000;fill-opacity:0;stroke:#3e3d3b;stroke-width:20.75515175;stroke-miterlimit:4.80000019;stroke-opacity:1;stroke-dasharray:none" />
      <path
         d="m 538.37612,401.47101 -12.9591,13.91197 -5.71724,-7.43242 16.19886,-9.33817 z"
         id="path5953"
         style="fill:#ffffff;fill-opacity:1;fill-rule:nonzero;stroke:#000000;stroke-width:0;stroke-linecap:butt;stroke-linejoin:miter;stroke-miterlimit:4;stroke-opacity:1;stroke-dasharray:none" />
      <path
         d="m 560.56406,220.1601 c -0.74845,-0.81014 -1.98446,-2.62001 -2.57169,-3.76571 l -0.40633,-0.79274 8.48349,-4.71059 c 4.66592,-2.59083 8.52438,-4.6697 8.57436,-4.61973 0.0753,0.0753 -10.48323,11.57996 -12.74666,13.88877 l -0.68636,0.70011 -0.64681,-0.70011 0,0 z"
         transform="matrix(0.75463804,0,0,0.75463804,119.81292,365.28319)"
         id="path5971"
         style="fill:#000000;fill-opacity:0;fill-rule:nonzero;stroke:#3e3d3b;stroke-width:0;stroke-miterlimit:4;stroke-opacity:1;stroke-dasharray:none" />
      <path
         d=""
         transform="matrix(0.75463804,0,0,0.75463804,119.81292,365.28319)"
         id="path5973"
         style="fill:#000000;fill-opacity:0;fill-rule:nonzero;stroke:#3e3d3b;stroke-width:0;stroke-miterlimit:4;stroke-opacity:1;stroke-dasharray:none" />
      <path
         d="m 577.00207,410.49944 12.95909,-13.91197 5.71724,7.43242 -16.19886,9.33817 z"
         id="path5953-3"
         style="fill:#ffffff;fill-opacity:1;fill-rule:nonzero;stroke:#000000;stroke-width:0;stroke-linecap:butt;stroke-linejoin:miter;stroke-miterlimit:4;stroke-opacity:1;stroke-dasharray:none" />
      <rect
         width="8.0854073"
         height="56.328339"
         x="525.16132"
         y="465.70779"
         id="rect5993"
         style="fill:#ffffff;fill-opacity:1;fill-rule:nonzero;stroke:#3e3d3b;stroke-width:0;stroke-miterlimit:4;stroke-opacity:1;stroke-dasharray:none" />
      <rect
         width="5.1207576"
         height="56.328335"
         x="457.24396"
         y="464.76443"
         id="rect5993-1"
         style="fill:#ffffff;fill-opacity:1;fill-rule:nonzero;stroke:#3e3d3b;stroke-width:0;stroke-miterlimit:4;stroke-opacity:1;stroke-dasharray:none" />
      <rect
         width="27.220873"
         height="56.328335"
         x="480.15259"
         y="455.87051"
         id="rect5993-2"
         style="fill:#ffffff;fill-opacity:1;fill-rule:nonzero;stroke:#3e3d3b;stroke-width:0;stroke-miterlimit:4;stroke-opacity:1;stroke-dasharray:none" />
    </g>
  </g>
</svg>
