<?xml version="1.0" encoding="UTF-8" standalone="no"?>
<!-- Generator: Adobe Illustrator 12.0.0, SVG Export Plug-In . SVG Version: 6.00 Build 51448)  -->

<svg
   xmlns:dc="http://purl.org/dc/elements/1.1/"
   xmlns:cc="http://creativecommons.org/ns#"
   xmlns:rdf="http://www.w3.org/1999/02/22-rdf-syntax-ns#"
   xmlns:svg="http://www.w3.org/2000/svg"
   xmlns="http://www.w3.org/2000/svg"
   xmlns:sodipodi="http://sodipodi.sourceforge.net/DTD/sodipodi-0.dtd"
   xmlns:inkscape="http://www.inkscape.org/namespaces/inkscape"
   version="1.1"
   width="545.025"
   height="100.917"
   viewBox="-81.975 0 545.025 100.917"
   overflow="visible"
   enable-background="new -81.975 0 545.025 100.917"
   xml:space="preserve"
   id="svg4343"
   inkscape:version="0.91 r13725"
   sodipodi:docname="join.svg"><metadata
     id="metadata4556"><rdf:RDF><cc:Work
         rdf:about=""><dc:format>image/svg+xml</dc:format><dc:type
           rdf:resource="http://purl.org/dc/dcmitype/StillImage" /><dc:title></dc:title></cc:Work></rdf:RDF></metadata><defs
     id="defs4554" /><sodipodi:namedview
     pagecolor="#ffffff"
     bordercolor="#666666"
     borderopacity="1"
     objecttolerance="10"
     gridtolerance="10"
     guidetolerance="10"
     inkscape:pageopacity="0"
     inkscape:pageshadow="2"
     inkscape:window-width="1440"
     inkscape:window-height="837"
     id="namedview4552"
     showgrid="false"
     inkscape:zoom="0.53392044"
     inkscape:cx="272.51251"
     inkscape:cy="50.4585"
     inkscape:window-x="1912"
     inkscape:window-y="-8"
     inkscape:window-maximized="1"
     inkscape:current-layer="svg4343" /><g
     id="Layer_1"
     display="none"><g
       display="inline"
       id="g4346"><g
         id="g4348"><polygon
           fill="#FFFFFF"
           points="22.231,60.7 0,60.7 9.407,0 31.634,0    "
           id="polygon4350" /><polygon
           fill="#FFFFFF"
           points="75.811,0 53.582,0 62.987,60.451 85.218,60.451    "
           id="polygon4352" /><polygon
           fill="#FFFFFF"
           points="49.846,60.196 33.914,60.196 46.772,0.283 60.989,0.283    "
           id="polygon4354" /><polygon
           fill="#FFFFFF"
           points="36.448,0.002 20.522,0.002 33.378,59.915 47.595,59.915    "
           id="polygon4356" /></g><g
         id="g4358"><polygon
           fill="#FFFFFF"
           points="117.421,60.802 94.337,60.802 114.004,0.781 130.25,0.781    "
           id="polygon4360" /><polygon
           fill="#FFFFFF"
           points="136.231,60.517 159.319,60.517 139.652,0.705 123.408,0.705    "
           id="polygon4362" /><rect
           x="112.155"
           y="32.478"
           fill="#FFFFFF"
           width="37.338"
           height="15.682"
           id="rect4364" /></g><g
         id="g4366"><rect
           x="165.735"
           y="0.594"
           fill="#FFFFFF"
           width="22.515"
           height="60.241"
           id="rect4368" /><rect
           x="205.063"
           y="0.701"
           fill="#FFFFFF"
           width="22.511"
           height="59.276"
           id="rect4370" /><polygon
           fill="#FFFFFF"
           points="188.483,0.729 168.865,0.729 205.223,59.839 222.727,59.839    "
           id="polygon4372" /></g><g
         id="g4374"><rect
           x="251.236"
           y="0.724"
           fill="#FFFFFF"
           width="22.508"
           height="60.111"
           id="rect4376" /><rect
           x="238.559"
           y="0.369"
           fill="#FFFFFF"
           width="46.449"
           height="22.829"
           id="rect4378" /></g><g
         id="g4380"><rect
           x="294.841"
           y="0.124"
           fill="#FFFFFF"
           width="22.512"
           height="59.281"
           id="rect4382" /><rect
           x="294.841"
           y="0.124"
           fill="#FFFFFF"
           width="40.753"
           height="16.532"
           id="rect4384" /><rect
           x="295.128"
           y="43.161"
           fill="#FFFFFF"
           width="40.751"
           height="16.529"
           id="rect4386" /><rect
           x="295.977"
           y="21.499"
           fill="#FFFFFF"
           width="37.344"
           height="15.675"
           id="rect4388" /></g><g
         id="g4390"><rect
           x="343.572"
           y="0.292"
           fill="#FFFFFF"
           width="22.52"
           height="60.109"
           id="rect4392" /><rect
           x="347.143"
           y="41.265"
           fill="#FFFFFF"
           width="35.908"
           height="19.211"
           id="rect4394" /></g></g></g><g
     id="Layer_2"><g
       id="g5448_4_"
       transform="matrix(0.97726281,0,0,0.97726281,-10.798352,-199.25394)"><path
         id="path5280-4-1_4_"
         inkscape:connector-curvature="0"
         fill-opacity="0"
         stroke="#FFFFFF"
         stroke-width="11"
         stroke-miterlimit="4.8"
         d="    M-17.372,226.999c0.002-7.256,5.929-13.137,13.241-13.137c7.309,0,13.237,5.884,13.237,13.138    c-0.001,7.254-5.928,13.136-13.239,13.136c-7.282,0-13.197-5.838-13.237-13.068" /><path
         id="path5280-4-1-6_4_"
         inkscape:connector-curvature="0"
         fill-opacity="0"
         stroke="#FFFFFF"
         stroke-width="11"
         stroke-miterlimit="4.8"
         d="    M8.659,226.931c0,7.254-5.927,13.136-13.237,13.136c-7.312,0-13.239-5.882-13.239-13.136c0-7.258,5.927-13.139,13.239-13.139    c7.283,0,13.197,5.839,13.237,13.066" /></g><g
       id="g5448_5_"
       transform="matrix(0.97726281,0,0,0.97726281,-10.798352,-199.25394)"><path
         id="path5280-4-1_5_"
         inkscape:connector-curvature="0"
         fill-opacity="0"
         stroke="#FFFFFF"
         stroke-width="10"
         stroke-miterlimit="4.8"
         d="    M80.942,277.952c0.002-7.655,6.255-13.858,13.968-13.858c7.71,0,13.964,6.208,13.964,13.86    c-0.002,7.653-6.254,13.858-13.966,13.858c-7.682,0-13.922-6.16-13.964-13.786" /><path
         id="path5280-4-1-6_5_"
         inkscape:connector-curvature="0"
         fill-opacity="0"
         stroke="#FFFFFF"
         stroke-width="10"
         stroke-miterlimit="4.8"
         d="    M108.403,277.88c0,7.653-6.253,13.858-13.964,13.858c-7.713,0-13.966-6.206-13.966-13.858c0-7.656,6.253-13.86,13.966-13.86    c7.683,0,13.922,6.16,13.964,13.784" /></g><g
       id="g5448_6_"
       transform="matrix(0.97726281,0,0,0.97726281,-10.798352,-199.25394)"><path
         id="path5280-4-1_6_"
         inkscape:connector-curvature="0"
         fill-opacity="0"
         stroke="#FFFFFF"
         stroke-width="11"
         stroke-miterlimit="4.8"
         d="    M398.586,228.023c0.002-7.256,5.93-13.137,13.241-13.137c7.309,0,13.237,5.884,13.237,13.138    c-0.002,7.254-5.928,13.136-13.238,13.136c-7.283,0-13.197-5.838-13.237-13.068" /><path
         id="path5280-4-1-6_6_"
         inkscape:connector-curvature="0"
         fill-opacity="0"
         stroke="#FFFFFF"
         stroke-width="11"
         stroke-miterlimit="4.8"
         d="    M424.617,227.954c0,7.254-5.928,13.136-13.237,13.136c-7.313,0-13.238-5.882-13.238-13.136c0-7.258,5.926-13.139,13.238-13.139    c7.283,0,13.197,5.839,13.237,13.066" /></g><rect
       x="428.85"
       y="70.501"
       fill="#FFFFFF"
       width="13.572"
       height="18.926"
       id="rect4406" /><g
       id="g4408"><polygon
         fill="#FFFFFF"
         points="281.986,89.323 268.494,89.323 279.99,54.241 289.486,54.241   "
         id="polygon4410" /><polygon
         fill="#FFFFFF"
         points="292.982,89.157 306.477,89.157 294.981,54.198 285.488,54.198   "
         id="polygon4412" /><rect
         x="278.908"
         y="72.769"
         fill="#FFFFFF"
         width="21.826"
         height="9.166"
         id="rect4414" /></g><g
       id="g4416"><rect
         x="237.684"
         y="54.189"
         fill="#FFFFFF"
         width="13.57"
         height="35.738"
         id="rect4418" /><rect
         x="237.684"
         y="54.189"
         fill="#FFFFFF"
         width="24.568"
         height="9.967"
         id="rect4420" /><rect
         x="238.367"
         y="67.075"
         fill="#FFFFFF"
         width="22.514"
         height="9.449"
         id="rect4422" /></g><rect
       x="370.184"
       y="53.689"
       fill="#FFFFFF"
       width="13.57"
       height="35.738"
       id="rect4424" /><g
       id="g4426"><rect
         x="392.402"
         y="53.558"
         fill="#FFFFFF"
         width="12.652"
         height="36.023"
         id="rect4428" /><rect
         x="394.408"
         y="78.829"
         fill="#FFFFFF"
         width="20.176"
         height="10.793"
         id="rect4430" /></g><rect
       id="rect2996-6-6-7-0_8_"
       x="273.516"
       y="5.399"
       fill="#FFFFFF"
       stroke="#FFFFFF"
       stroke-width="2"
       width="8.713"
       height="20.508" /><path
       id="path5370_5_"
       inkscape:connector-curvature="0"
       fill="#EC2024"
       fill-opacity="0"
       stroke="#FFFFFF"
       stroke-width="11"
       stroke-miterlimit="4.8"
       d="   M296.852,24.934c0,6.012-4.244,10.885-9.48,10.885c-5.232,0-9.477-4.873-9.477-10.885c0-0.061,0-0.121,0.002-0.178" /><rect
       id="rect2996-6-6-7-0_7_"
       x="292.631"
       y="5.748"
       fill="#FFFFFF"
       stroke="#FFFFFF"
       stroke-width="2"
       width="8.715"
       height="20.841" /><g
       id="g4435"><rect
         x="238.018"
         y="5.19"
         fill="#FFFFFF"
         width="13.57"
         height="35.739"
         id="rect4437" /><rect
         x="238.018"
         y="5.19"
         fill="#FFFFFF"
         width="24.568"
         height="9.967"
         id="rect4439" /><rect
         x="238.701"
         y="18.075"
         fill="#FFFFFF"
         width="22.514"
         height="9.45"
         id="rect4441" /></g><rect
       x="11.745"
       y="5.269"
       fill="#FFFFFF"
       width="13.388"
       height="35.756"
       id="rect4443" /><g
       id="g4445"><rect
         x="35.892"
         y="5.227"
         fill="#FFFFFF"
         width="12.321"
         height="35.965"
         id="rect4447" /><rect
         x="57.413"
         y="5.293"
         fill="#FFFFFF"
         width="12.318"
         height="36.374"
         id="rect4449" /><polygon
         fill="#FFFFFF"
         points="48.34,5.312 37.606,5.312 57.501,41.581 67.079,41.581   "
         id="polygon4451" /></g><g
       id="g4453"><rect
         x="110.828"
         y="6.482"
         fill="#FFFFFF"
         width="13.388"
         height="34.708"
         id="rect4455" /><rect
         x="103.287"
         y="6.308"
         fill="#FFFFFF"
         width="27.629"
         height="11.188"
         id="rect4457" /></g><g
       id="g4459"><rect
         x="137.726"
         y="5.401"
         fill="#FFFFFF"
         width="12.696"
         height="34.36"
         id="rect4461" /><rect
         x="157.059"
         y="5.081"
         fill="#FFFFFF"
         width="12.696"
         height="34.358"
         id="rect4463" /><rect
         id="rect2996-6-2-7-6-7-5_5_"
         x="138.253"
         y="16.045"
         fill="#FFFFFF"
         stroke="#FFFFFF"
         stroke-width="0.5179"
         width="30.88"
         height="10.006" /></g><g
       id="g4466"><rect
         x="178.496"
         y="4.94"
         fill="#FFFFFF"
         width="13.645"
         height="35.935"
         id="rect4468" /><rect
         x="178.496"
         y="4.94"
         fill="#FFFFFF"
         width="24.702"
         height="10.021"
         id="rect4470" /><rect
         x="178.669"
         y="31.026"
         fill="#FFFFFF"
         width="24.702"
         height="10.02"
         id="rect4472" /><rect
         x="179.184"
         y="17.897"
         fill="#FFFFFF"
         width="22.636"
         height="9.501"
         id="rect4474" /></g><g
       id="g4476"><path
         id="path5372-1-6_5_"
         inkscape:connector-curvature="0"
         fill="#EC2024"
         fill-opacity="0"
         stroke="#FFFFFF"
         stroke-width="11"
         stroke-miterlimit="4.8"
         d="    M-46.65,14.273c0.281,8.133,0.281,8.133,0.282,12.039c-0.001,7.031-3.392,9.342-7.854,9.274c-3.428-0.438-4.34-1.385-6.303-4.188" /><rect
         id="rect2996-6-2_5_"
         x="-52.031"
         y="4.775"
         fill="#FFFFFF"
         width="11.145"
         height="23.446" /></g><g
       id="g4480"><polygon
         fill="#FFFFFF"
         points="323.811,89.722 310.553,89.722 316.164,53.523 329.42,53.523   "
         id="polygon4482" /><polygon
         fill="#FFFFFF"
         points="355.766,53.523 342.508,53.523 348.117,89.573 361.375,89.573   "
         id="polygon4484" /><polygon
         fill="#FFFFFF"
         points="340.279,89.421 330.779,89.421 338.447,53.691 346.926,53.691   "
         id="polygon4486" /><polygon
         fill="#FFFFFF"
         points="332.291,53.523 322.793,53.523 330.459,89.255 338.94,89.255   "
         id="polygon4488" /></g><g
       id="g4490"><polygon
         fill="#FFFFFF"
         points="443.221,71.653 429.348,71.653 440.543,53.437 452.926,53.437   "
         id="polygon4492" /><polygon
         fill="#FFFFFF"
         points="431.555,53.351 417.684,53.351 428.879,71.568 441.262,71.568   "
         id="polygon4494" /></g><g
       id="g4496"><rect
         x="312.527"
         y="5.016"
         fill="#FFFFFF"
         width="12.652"
         height="36.44"
         id="rect4498" /><rect
         x="314.533"
         y="30.704"
         fill="#FFFFFF"
         width="20.176"
         height="10.793"
         id="rect4500" /></g><g
       id="g4502"><rect
         x="346.578"
         y="5.186"
         fill="#FFFFFF"
         width="13.387"
         height="35.754"
         id="rect4504" /><rect
         x="339.037"
         y="4.975"
         fill="#FFFFFF"
         width="27.629"
         height="13.578"
         id="rect4506" /></g><g
       id="g4508"><rect
         x="419.725"
         y="4.478"
         fill="#FFFFFF"
         width="12.322"
         height="36.631"
         id="rect4510" /><rect
         x="441.246"
         y="4.543"
         fill="#FFFFFF"
         width="12.318"
         height="36.046"
         id="rect4512" /><polygon
         fill="#FFFFFF"
         points="432.174,4.561 421.44,4.561 441.334,40.503 450.912,40.503   "
         id="polygon4514" /></g><g
       id="g4516"><rect
         id="rect2996-6_1_"
         x="-66.548"
         y="53.784"
         fill="#FFFFFF"
         stroke="#FFFFFF"
         stroke-width="0.6293"
         width="10.433"
         height="36.34" /><rect
         id="rect2996-6-6_1_"
         x="-62.461"
         y="53.704"
         fill="#FFFFFF"
         stroke="#FFFFFF"
         stroke-width="0.3925"
         width="19.693"
         height="7.492" /><rect
         id="rect2996-6-6-9-2_1_"
         x="-62.461"
         y="69.11"
         fill="#FFFFFF"
         stroke="#FFFFFF"
         stroke-width="0.3925"
         width="19.693"
         height="7.49" /></g><rect
       id="rect2996-6-2_1_"
       x="-35.172"
       y="54.792"
       fill="#FFFFFF"
       stroke="#FFFFFF"
       stroke-width="0.6212"
       width="10.164"
       height="34.334" /><g
       id="g4522"><rect
         id="rect2996-6-2-7_1_"
         x="-7.68"
         y="55.61"
         fill="#FFFFFF"
         stroke="#FFFFFF"
         stroke-width="0.6213"
         width="10.3"
         height="35.313" /><rect
         id="rect2996-6-2-7-0_1_"
         x="-16.943"
         y="54.78"
         fill="#FFFFFF"
         stroke="#FFFFFF"
         stroke-width="0.479"
         width="28.827"
         height="8.563" /></g><g
       id="g4526"><rect
         id="rect2996-6-6-7-0_3_"
         x="109.803"
         y="56.982"
         fill="#FFFFFF"
         stroke="#FFFFFF"
         stroke-width="3.5"
         width="7.604"
         height="17.658" /><rect
         id="rect2996-6-6-7-0-5_1_"
         x="129.836"
         y="56.735"
         fill="#FFFFFF"
         stroke="#FFFFFF"
         stroke-width="3.5"
         width="7.62"
         height="18.662" /><path
         id="path5370_2_"
         inkscape:connector-curvature="0"
         fill="#EC2024"
         fill-opacity="0"
         stroke="#FFFFFF"
         stroke-width="11"
         stroke-miterlimit="4.8"
         d="    M133.707,75.077c0,5.059-4.509,9.16-10.073,9.16c-5.56,0-10.071-4.102-10.071-9.16c0-0.051,0-0.102,0.001-0.15" /></g><g
       id="g4531"><path
         id="path5372-1_1_"
         inkscape:connector-curvature="0"
         fill="#EC2024"
         fill-opacity="0"
         stroke="#FFFFFF"
         stroke-width="9"
         stroke-miterlimit="4.8"
         d="    M157.861,72.872c5.702,0.36,10.16,3.715,9.958,7.491c-0.206,3.776-4.994,6.542-10.697,6.181c-3.853-0.246-7.309-1.889-8.961-4.266    " /><path
         id="path5372-1-6_1_"
         inkscape:connector-curvature="0"
         fill="#EC2024"
         fill-opacity="0"
         stroke="#FFFFFF"
         stroke-width="9"
         stroke-miterlimit="4.8"
         d="    M158.2,72.821c-5.707-0.232-10.342-3.49-10.36-7.279c-0.019-3.789,4.59-6.674,10.292-6.443c4.001,0.162,7.645,1.842,9.36,4.313" /></g><g
       id="g4535"><rect
         x="178.996"
         y="54.44"
         fill="#FFFFFF"
         width="13.645"
         height="35.935"
         id="rect4537" /><rect
         x="178.996"
         y="54.44"
         fill="#FFFFFF"
         width="24.702"
         height="10.021"
         id="rect4539" /><rect
         x="179.169"
         y="80.526"
         fill="#FFFFFF"
         width="24.702"
         height="10.02"
         id="rect4541" /><rect
         x="179.684"
         y="67.397"
         fill="#FFFFFF"
         width="22.636"
         height="9.501"
         id="rect4543" /></g><g
       id="g4545"><rect
         x="21.517"
         y="54.526"
         fill="#FFFFFF"
         width="13.571"
         height="36.234"
         id="rect4547" /><rect
         x="42.183"
         y="54.189"
         fill="#FFFFFF"
         width="13.571"
         height="36.232"
         id="rect4549" /><rect
         id="rect2996-6-2-7-6-7-5_1_"
         x="22.081"
         y="65.751"
         fill="#FFFFFF"
         stroke="#FFFFFF"
         stroke-width="0.5179"
         width="33.01"
         height="10.551" /></g></g></svg>