<?xml version="1.0" encoding="utf-8"?>
<!-- Generator: Adobe Illustrator 12.0.0, SVG Export Plug-In . SVG Version: 6.00 Build 51448)  -->
<!DOCTYPE svg PUBLIC "-//W3C//DTD SVG 1.1//EN" "http://www.w3.org/Graphics/SVG/1.1/DTD/svg11.dtd" [
	<!ENTITY ns_svg "http://www.w3.org/2000/svg">
	<!ENTITY ns_xlink "http://www.w3.org/1999/xlink">
]>
<svg  version="1.1" id="Layer_1" xmlns="&ns_svg;" xmlns:xlink="&ns_xlink;" width="383.051" height="60.834"
	 viewBox="0 0 383.051 60.834" overflow="visible" enable-background="new 0 0 383.051 60.834" xml:space="preserve">
<g>
	<g>
		<polygon fill="#FFFFFF" points="22.231,60.7 0,60.7 9.407,0 31.634,0 		"/>
		<polygon fill="#FFFFFF" points="75.811,0 53.582,0 62.987,60.451 85.218,60.451 		"/>
		<polygon fill="#FFFFFF" points="49.846,60.196 33.914,60.196 46.772,0.283 60.989,0.283 		"/>
		<polygon fill="#FFFFFF" points="36.448,0.002 20.522,0.002 33.378,59.915 47.595,59.915 		"/>
	</g>
	<g>
		<polygon fill="#FFFFFF" points="117.421,60.802 94.337,60.802 114.004,0.781 130.25,0.781 		"/>
		<polygon fill="#FFFFFF" points="136.231,60.517 159.319,60.517 139.652,0.705 123.408,0.705 		"/>
		<rect x="112.155" y="32.477" fill="#FFFFFF" width="37.338" height="15.682"/>
	</g>
	<g>
		<rect x="165.735" y="0.594" fill="#FFFFFF" width="22.515" height="60.241"/>
		<rect x="205.063" y="0.701" fill="#FFFFFF" width="22.51" height="59.277"/>
		<polygon fill="#FFFFFF" points="188.483,0.729 168.865,0.729 205.223,59.839 222.726,59.839 		"/>
	</g>
	<g>
		<rect x="251.237" y="0.724" fill="#FFFFFF" width="22.507" height="60.111"/>
		<rect x="238.559" y="0.369" fill="#FFFFFF" width="46.449" height="22.829"/>
	</g>
	<g>
		<rect x="294.841" y="0.124" fill="#FFFFFF" width="22.512" height="59.281"/>
		<rect x="294.841" y="0.124" fill="#FFFFFF" width="40.753" height="16.532"/>
		<rect x="295.128" y="43.161" fill="#FFFFFF" width="40.751" height="16.529"/>
		<rect x="295.977" y="21.499" fill="#FFFFFF" width="37.343" height="15.675"/>
	</g>
	<g>
		<rect x="343.572" y="0.292" fill="#FFFFFF" width="22.52" height="60.109"/>
		<rect x="347.143" y="41.264" fill="#FFFFFF" width="35.908" height="19.212"/>
	</g>
</g>
</svg>
